<svg width="28" height="28" viewBox="0 0 28 28" fill="none" xmlns="http://www.w3.org/2000/svg">
<path d="M27.124 0.894857C26.3115 0.0823573 24.999 0.0823573 24.1865 0.894857L13.999 11.0615L3.81152 0.874023C2.99902 0.0615235 1.68652 0.0615235 0.874023 0.874023C0.0615235 1.68652 0.0615235 2.99902 0.874023 3.81152L11.0615 13.999L0.874023 24.1865C0.0615235 24.999 0.0615235 26.3115 0.874023 27.124C1.68652 27.9365 2.99902 27.9365 3.81152 27.124L13.999 16.9365L24.1865 27.124C24.999 27.9365 26.3115 27.9365 27.124 27.124C27.9365 26.3115 27.9365 24.999 27.124 24.1865L16.9365 13.999L27.124 3.81152C27.9157 3.01986 27.9157 1.68652 27.124 0.894857Z" fill="#222222"/>
</svg>
