<svg width="41" height="33" viewBox="0 0 41 33" fill="none" xmlns="http://www.w3.org/2000/svg">
<path d="M40.0837 0.831055C38.5562 1.73776 35.4914 2.97347 33.6897 3.32989C33.6368 3.3436 33.5937 3.36122 33.5428 3.37493C31.9507 1.80435 29.7691 0.831055 27.3545 0.831055C22.488 0.831055 18.542 4.7771 18.542 9.64355C18.542 9.9001 18.5205 10.3721 18.542 10.6227C11.9757 10.6227 6.97803 7.18389 3.39428 2.78939C3.00458 3.76855 2.8342 5.31564 2.8342 6.76872C2.8342 9.51235 4.97858 12.207 8.31753 13.8775C7.70262 14.0361 7.02503 14.1497 6.32003 14.1497C5.18224 14.1497 3.97787 13.8501 2.87533 12.9414C2.87533 12.9747 2.87533 13.006 2.87533 13.0413C2.87533 16.8757 6.94474 19.4861 10.5637 20.2127C9.82937 20.6455 8.34887 20.6886 7.62624 20.6886C7.11708 20.6886 5.31541 20.4555 4.83366 20.3654C5.84024 23.5086 9.47099 25.275 12.9314 25.3376C10.225 27.4605 8.34691 28.2477 2.80483 28.2477H0.916992C4.41849 30.492 8.87762 32.1663 13.3465 32.1663C27.897 32.1663 36.167 21.0763 36.167 10.6227C36.167 10.4543 36.1631 10.1018 36.1572 9.74735C36.1572 9.7121 36.167 9.6788 36.167 9.64355C36.167 9.59068 36.1513 9.53976 36.1513 9.48689C36.1455 9.22055 36.1396 8.97185 36.1337 8.8426C37.6808 7.72635 39.0222 6.33397 40.0837 4.74772C38.6639 5.37831 37.1403 5.80131 35.5403 5.99322C37.1736 5.01406 39.4942 2.67972 40.0837 0.831055Z" fill="#222222"/>
</svg>
