<svg width="41" height="31" viewBox="0 0 41 31" fill="none" xmlns="http://www.w3.org/2000/svg">
<path d="M39.3282 4.21277C38.8744 2.57155 37.5365 1.27766 35.8395 0.838726C32.7612 0.041016 20.4203 0.0410156 20.4203 0.0410156C20.4203 0.0410156 8.0794 0.041016 5.00109 0.838726C3.30407 1.27766 1.96618 2.57155 1.51233 4.21277C0.6875 7.18987 0.6875 15.3082 0.6875 15.3082C0.6875 15.3082 0.6875 23.4265 1.51233 26.4036C1.96618 28.0448 3.30407 29.3387 5.00109 29.7777C8.0794 30.5754 20.4203 30.5754 20.4203 30.5754C20.4203 30.5754 32.7612 30.5754 35.8395 29.7777C37.5385 29.3387 38.8744 28.0448 39.3282 26.4036C40.1531 23.4265 40.1531 15.3082 40.1531 15.3082C40.1531 15.3082 40.1531 7.18987 39.3282 4.21277ZM16.4737 21.9189V8.6975L28.3134 15.3082L16.4737 21.9189Z" fill="#222222"/>
</svg>
