<svg width="30" height="31" viewBox="0 0 30 31" fill="none" xmlns="http://www.w3.org/2000/svg">
<path d="M8.24543 0.0410156C3.70525 0.0410156 0.0234375 3.83915 0.0234375 8.52278V22.0936C0.0234375 26.7772 3.70525 30.5754 8.24543 30.5754H21.4006C25.9408 30.5754 29.6226 26.7772 29.6226 22.0936V8.52278C29.6226 3.83915 25.9408 0.0410156 21.4006 0.0410156H8.24543ZM24.6894 3.43372C25.5971 3.43372 26.3338 4.19369 26.3338 5.13007C26.3338 6.06646 25.5971 6.82643 24.6894 6.82643C23.7817 6.82643 23.045 6.06646 23.045 5.13007C23.045 4.19369 23.7817 3.43372 24.6894 3.43372ZM14.823 6.82643C19.3632 6.82643 23.045 10.6246 23.045 15.3082C23.045 19.9918 19.3632 23.79 14.823 23.79C10.2828 23.79 6.60103 19.9918 6.60103 15.3082C6.60103 10.6246 10.2828 6.82643 14.823 6.82643ZM14.823 10.2191C13.5147 10.2191 12.2599 10.7553 11.3347 11.7097C10.4096 12.6641 9.88983 13.9585 9.88983 15.3082C9.88983 16.6579 10.4096 17.9523 11.3347 18.9067C12.2599 19.8611 13.5147 20.3972 14.823 20.3972C16.1314 20.3972 17.3862 19.8611 18.3113 18.9067C19.2365 17.9523 19.7562 16.6579 19.7562 15.3082C19.7562 13.9585 19.2365 12.6641 18.3113 11.7097C17.3862 10.7553 16.1314 10.2191 14.823 10.2191Z" fill="#222222"/>
</svg>
