<svg width="133" height="20" viewBox="0 0 133 20" fill="none" xmlns="http://www.w3.org/2000/svg">
<path d="M126.239 19.9363C123.413 19.9363 120.587 18.9172 118.314 16.8153L120.71 13.8217C122.369 15.2866 124.15 16.1783 126.3 16.1783C127.959 16.1783 129.003 15.4777 129.003 14.3312V14.2675C129.003 13.1847 128.389 12.6115 125.256 11.7834C121.509 10.7643 119.052 9.68153 119.052 5.85987C119.052 2.35669 121.754 0.0636943 125.563 0.0636943C128.266 0.0636943 130.6 0.955414 132.505 2.54777L130.355 5.73248C128.696 4.52229 127.099 3.82166 125.502 3.82166C123.904 3.82166 123.106 4.58599 123.106 5.47771V5.5414C123.106 6.81529 123.904 7.19745 127.099 8.08917C130.908 9.10828 132.996 10.5096 132.996 13.8854V13.949C133.119 17.7707 130.293 19.9363 126.239 19.9363ZM105.414 11.5287H110.39L107.933 5.28662L105.414 11.5287ZM98.1039 19.6178L106.09 0.127389H109.898L117.884 19.6178H113.584L111.864 15.2866H104.001L102.281 19.6178H98.1039ZM89.8722 19.8089L82.3777 0.318471H86.9236L91.7766 13.949L96.6295 0.318471H101.052L93.4966 19.8089H89.8722ZM63.4573 19.6178V0.318471H67.266L75.989 12.2293V0.318471H80.0434V19.6178H76.5419L67.5117 7.32484V19.6178H63.4573ZM48.7141 11.5287H53.6899L51.2327 5.28662L48.7141 11.5287ZM41.3424 19.6178L49.3284 0.127389H53.137L61.1229 19.6178H56.8228L55.1028 15.2866H47.2397L45.5197 19.6178H41.3424ZM33.1108 20C27.6435 20 23.5277 15.6051 23.5277 10.0637V10C23.5277 4.52229 27.5207 0 33.2337 0C36.7352 0 38.8238 1.21019 40.6053 2.99363L38.0252 6.11465C36.6123 4.77707 35.138 3.94904 33.2337 3.94904C30.1007 3.94904 27.8278 6.6242 27.8278 10C27.8278 13.3121 30.0393 16.051 33.2337 16.051C35.3837 16.051 36.6738 15.1592 38.1481 13.758L40.7281 16.4968C38.8238 18.6624 36.7352 20 33.1108 20ZM0 0.191083H18.7976V19.6815H0V0.191083Z" fill="black"/>
</svg>
